<?xml version="1.0" standalone="no"?>
<!DOCTYPE svg PUBLIC "-//W3C//DTD SVG 20010904//EN"
 "http://www.w3.org/TR/2001/REC-SVG-20010904/DTD/svg10.dtd">
<svg version="1.0" xmlns="http://www.w3.org/2000/svg"
 width="626.000000pt" height="800.000000pt" viewBox="0 0 626.000000 800.000000"
 preserveAspectRatio="xMidYMid meet">

<g transform="translate(0.000000,800.000000) scale(0.100000,-0.100000)"
fill="#000000" stroke="none">
<path d="M650 5598 c0 -4 9 -32 21 -63 25 -68 21 -91 -9 -44 -12 20 -30 44
-42 54 -20 18 -20 18 -20 -4 0 -12 18 -66 40 -119 23 -53 45 -106 49 -117 7
-16 0 -29 -30 -62 -44 -49 -52 -75 -13 -44 15 12 37 21 49 21 12 0 67 -24 121
-54 85 -47 100 -52 105 -38 16 44 -39 112 -90 112 -14 0 -33 5 -41 10 -32 21
46 10 90 -12 40 -20 48 -31 71 -87 14 -36 31 -67 37 -69 19 -6 14 26 -8 56
-10 15 -24 48 -30 74 -9 42 -7 52 19 105 23 46 61 152 61 170 0 2 -8 3 -18 3
-10 0 -31 -13 -47 -30 -16 -16 -32 -30 -35 -30 -3 0 -17 30 -31 68 l-24 67 -6
-55 c-3 -30 -6 -48 -7 -39 -2 14 -69 59 -87 59 -13 0 -3 -45 15 -67 36 -46 16
-113 -34 -113 -20 0 -31 -24 -20 -47 7 -16 8 -15 11 5 4 22 27 30 37 13 13
-20 -7 -42 -33 -39 -22 3 -27 9 -29 38 -2 19 -8 39 -13 45 -17 17 -9 51 16 73
23 20 23 23 10 49 -8 15 -17 40 -20 55 -3 16 -14 29 -28 34 -12 4 -25 12 -29
18 -4 6 -8 8 -8 4z"/>
<path d="M760 5445 c0 -6 5 -16 11 -22 12 -12 3 -53 -11 -53 -4 0 -6 10 -4 23
4 21 4 21 -6 -2 -13 -29 -5 -39 18 -25 23 15 26 45 8 69 -9 11 -16 15 -16 10z"/>
<path d="M3292 5410 c2 -22 -1 -42 -7 -44 -5 -2 16 -5 48 -5 l57 -1 0 35 c0
38 -3 40 -64 49 l-38 5 4 -39z"/>
<path d="M2167 5414 c-14 -15 -6 -72 13 -94 24 -28 24 -36 5 -74 -18 -34 -19
-58 -3 -74 7 -7 8 -12 2 -12 -6 0 -15 5 -20 10 -8 8 -257 100 -271 100 -2 0
-3 -33 -3 -72 0 -72 0 -73 27 -75 29 -1 55 -29 51 -53 -4 -22 -46 -25 -69 -4
-16 14 -19 31 -19 111 0 51 -4 93 -8 93 -5 0 -19 -11 -32 -25 -19 -20 -22 -31
-17 -72 4 -35 2 -42 -5 -28 -20 34 -14 92 10 118 l23 24 -31 13 c-17 7 -32 11
-34 9 -3 -2 -50 -93 -106 -202 -72 -140 -98 -198 -88 -202 7 -2 67 -24 133
-49 l120 -44 10 32 c13 40 74 73 105 56 46 -25 1 -120 -58 -120 -19 0 -373
123 -390 136 -3 2 204 421 213 432 1 1 32 -9 68 -23 43 -16 68 -21 73 -14 7
13 11 10 -57 48 l-56 31 -27 -21 c-77 -60 -318 -192 -401 -218 -122 -40 -202
-53 -243 -42 -32 9 -32 9 -17 -12 30 -43 9 -137 -31 -137 -8 0 -14 -4 -14 -8
0 -8 182 -63 188 -57 2 2 5 28 6 59 2 46 8 63 34 95 18 22 32 47 32 55 0 9 4
16 8 16 5 0 14 -51 21 -112 17 -146 15 -143 52 -145 18 -1 43 -13 56 -25 30
-28 102 -30 177 -4 27 9 50 15 52 13 2 -2 -1 -19 -6 -38 -14 -47 -13 -49 14
-49 35 0 78 -24 65 -37 -14 -14 -10 -15 89 -43 45 -13 79 -27 75 -31 -19 -18
-116 -60 -128 -55 -10 3 -15 -9 -20 -45 -7 -48 -6 -51 40 -107 62 -75 78 -114
73 -178 -8 -91 -74 -157 -158 -158 -46 -1 -49 -3 -53 -30 -3 -23 2 -35 22 -52
25 -21 26 -21 39 -3 27 38 82 12 82 -39 0 -14 -11 -38 -26 -53 l-25 -26 83
-44 c46 -24 88 -45 94 -47 10 -3 178 221 190 253 3 6 -33 32 -82 58 -86 46
-88 46 -102 26 -17 -24 -56 -41 -77 -33 -41 16 6 91 52 82 24 -4 263 -131 263
-140 0 -6 -172 -260 -191 -281 -4 -5 -57 19 -117 52 -61 34 -113 61 -115 61
-3 0 -7 -9 -10 -20 -6 -21 -52 -44 -74 -36 -23 9 -26 36 -7 57 17 19 17 21
-28 62 -45 41 -46 43 -52 122 -13 154 -23 172 -65 119 -25 -32 -27 -83 -5
-125 8 -17 13 -33 11 -35 -9 -9 -47 83 -47 113 0 18 13 50 33 79 18 27 38 65
44 84 l11 35 7 -33 8 -33 15 23 c24 34 44 47 74 48 22 0 29 6 34 28 3 15 7 32
9 39 2 6 -7 26 -21 44 -13 18 -31 52 -40 76 -26 68 -33 62 -80 -72 -17 -49
-59 -162 -94 -250 -129 -333 -128 -332 -61 -321 31 5 65 -3 157 -35 121 -42
169 -62 178 -78 3 -5 -3 -78 -13 -162 -11 -85 -25 -210 -31 -278 l-11 -123 52
-47 c28 -25 70 -63 92 -85 l40 -38 81 11 c45 7 118 16 163 22 172 21 166 19
181 72 7 26 17 47 21 47 5 0 12 -19 17 -42 5 -24 12 -42 17 -41 4 0 34 4 66 8
l59 7 6 46 c3 26 8 76 12 112 l6 65 -33 10 c-38 12 -73 54 -64 78 14 35 70 29
103 -12 12 -16 9 -129 -5 -189 l-6 -24 40 20 c51 27 61 39 66 87 2 22 3 5 0
-39 -2 -43 -10 -91 -19 -107 -8 -16 -11 -29 -7 -29 5 -1 -38 -45 -95 -98
l-103 -97 16 -80 c9 -44 24 -102 34 -130 10 -27 22 -86 26 -130 7 -85 77 -432
96 -481 6 -16 14 -49 18 -74 6 -41 10 -47 56 -72 28 -15 55 -28 60 -28 11 0
187 242 187 256 0 5 -37 28 -82 52 l-81 45 -28 -27 c-30 -29 -62 -34 -81 -11
-10 12 -9 20 4 40 30 45 55 42 177 -24 62 -34 114 -59 116 -57 2 2 1 61 -3
130 l-7 127 -21 -20 c-39 -37 -103 -35 -128 3 -9 14 -58 -32 -58 -55 0 -26 17
-32 23 -9 7 26 47 27 47 1 0 -47 -61 -51 -82 -5 -10 22 -8 29 20 57 20 20 32
43 32 59 0 46 63 85 95 58 18 -15 45 3 45 30 0 9 11 38 25 64 23 43 25 58 25
170 0 111 -22 312 -61 546 -19 117 -13 108 -63 103 -40 -5 -48 -2 -77 26 -30
31 -33 47 -18 100 7 25 -21 23 -31 -3 -13 -35 -32 -33 -69 9 l-31 36 0 149 c0
98 4 150 10 150 17 0 281 -30 318 -36 l32 -5 0 -124 c0 -93 3 -125 13 -125 6
0 24 -7 40 -14 27 -15 27 -15 27 17 0 18 -9 64 -21 102 -11 39 -35 142 -53
230 l-34 160 -138 52 c-77 29 -147 56 -156 59 -30 9 -24 -58 9 -97 34 -40 78
-59 145 -60 l53 -1 -38 -10 c-50 -13 -116 -3 -156 25 -18 12 -48 52 -69 91
-44 81 -62 94 -62 42 0 -25 -5 -36 -14 -36 -8 0 -84 16 -168 35 -84 20 -175
37 -202 39 -81 6 -90 24 -94 166 -2 68 -8 120 -13 120 -17 0 -57 -50 -62 -78
-3 -15 1 -45 8 -67 8 -21 12 -41 10 -43 -7 -7 -33 53 -36 83 -4 58 1 74 41
121 23 25 44 59 47 75 7 34 23 39 23 7 1 -21 2 -21 11 -5 14 24 53 21 86 -7
l27 -24 -17 -138 c-9 -76 -15 -140 -12 -142 2 -3 83 -24 180 -47 164 -40 175
-41 175 -23 0 10 -7 21 -15 24 -22 9 -18 24 5 24 13 0 20 7 20 20 0 16 -5 19
-30 14 -29 -6 -60 8 -60 28 0 19 50 58 75 58 39 0 34 35 -7 46 -36 11 -65 52
-55 77 9 24 62 22 88 -4 18 -18 21 -30 17 -75 l-5 -54 52 -30 c63 -36 65 -36
65 -7 0 48 -13 69 -54 89 -35 16 -36 18 -11 13 17 -3 42 -15 57 -25 15 -11 32
-20 37 -20 15 0 49 -48 62 -88 6 -20 18 -45 27 -55 8 -9 13 -19 11 -22 -3 -2
-58 25 -124 60 -65 36 -120 64 -121 62 -2 -1 -6 -25 -9 -52 l-7 -50 169 -61
168 -62 17 38 c9 21 21 41 27 44 7 5 11 46 11 108 0 85 2 99 15 94 8 -3 15 -1
15 3 0 11 -34 32 -158 100 l-93 50 -11 -23 c-24 -54 -118 -61 -118 -9 0 24 48
63 76 63 15 0 68 -22 119 -50 51 -27 98 -50 104 -50 21 0 11 50 -16 80 -18 20
-46 36 -78 45 -48 13 -48 13 -15 14 54 1 114 -31 131 -70 9 -19 23 -50 32 -69
l18 -35 -6 63 -5 62 179 0 179 0 10 -82 c10 -79 11 -77 7 57 -2 77 -11 176
-20 220 -27 142 -19 138 -82 46 -31 -44 -62 -81 -70 -81 -28 0 -13 -36 20 -45
25 -8 32 -15 32 -35 0 -18 -6 -26 -21 -28 -33 -5 -54 24 -54 72 0 52 -21 76
-46 55 -11 -9 -14 -23 -10 -47 3 -19 2 -31 -2 -28 -3 4 -9 30 -12 57 -4 45 -9
52 -42 71 l-38 22 -70 -23 c-38 -13 -70 -26 -70 -30 0 -18 28 -31 68 -31 35 0
49 -6 74 -31 25 -25 28 -33 17 -39 -16 -11 -55 -3 -85 15 -13 8 -46 13 -83 12
-57 -2 -65 0 -87 26 -25 29 -30 62 -14 87 6 10 8 4 4 -22 -6 -31 -3 -38 20
-53 19 -12 36 -15 61 -11 20 4 33 11 30 16 -3 5 -18 7 -34 4 -31 -7 -62 16
-60 44 1 15 2 15 6 0 2 -10 12 -18 21 -18 12 0 2 15 -30 45 -47 45 -81 57 -91
31 -4 -9 0 -12 13 -9 24 6 36 -15 18 -33 -12 -12 -17 -12 -32 -1 -24 18 -15
63 15 72 19 6 9 19 -87 116 l-108 109 -22 -21 c-15 -14 -32 -19 -55 -17 -46 4
-51 36 -10 70 l29 25 -82 82 c-45 45 -85 78 -89 75z m82 -280 c14 -12 -19 -1
-35 12 -18 14 -18 14 6 3 14 -6 27 -13 29 -15z m111 -149 c69 -8 126 -15 127
-15 0 0 -1 -27 -4 -59 -8 -90 1 -124 38 -138 24 -9 30 -17 27 -35 -4 -30 -32
-34 -57 -9 -18 18 -21 33 -21 111 0 85 -1 90 -22 94 -28 6 -186 26 -205 26
-10 0 -13 -19 -13 -74 0 -70 1 -74 25 -80 26 -7 50 -40 40 -56 -10 -16 -51
-12 -66 7 -17 20 -20 243 -4 243 6 0 66 -7 135 -15z m-19 -1038 c23 -15 41
-40 56 -77 12 -30 32 -65 44 -78 12 -12 20 -25 17 -27 -2 -2 -62 27 -132 66
l-129 70 -26 -30 c-32 -38 -72 -49 -95 -26 -9 9 -16 21 -16 26 0 17 57 69 76
69 9 0 63 -25 119 -55 57 -30 106 -55 109 -55 12 0 5 56 -10 78 -19 27 -48 44
-94 53 l-35 7 41 1 c28 1 52 -6 75 -22z m-88 -312 l-3 -135 30 0 c31 0 70 -30
70 -53 0 -18 -21 -37 -41 -37 -9 0 -28 9 -43 21 -24 19 -26 26 -26 105 l0 85
-30 -16 c-39 -20 -53 -49 -46 -94 5 -26 4 -32 -3 -21 -15 21 -11 140 4 170 7
14 27 38 44 54 17 17 31 36 31 43 0 7 3 13 8 13 4 0 6 -61 5 -135z m-325 -61
c45 -31 46 -56 17 -276 -7 -50 14 -51 62 -3 35 35 36 37 31 103 -5 66 -5 67 9
32 9 -22 13 -53 10 -83 -4 -43 -11 -56 -60 -105 -30 -31 -58 -67 -62 -79 -6
-21 -25 -33 -25 -15 0 4 9 77 20 162 11 85 20 157 20 160 0 3 -14 6 -32 6 -21
1 -39 10 -55 28 -22 26 -30 65 -16 79 12 12 58 7 81 -9z m810 -693 c-13 -16
-64 -73 -114 -128 l-91 -98 24 -20 c29 -25 40 -82 20 -109 -32 -43 -107 22
-93 80 4 13 45 67 93 120 92 102 95 114 26 114 -40 0 -86 -38 -113 -93 -17
-36 -19 -38 -14 -12 15 81 72 129 163 138 33 3 70 12 83 21 35 25 42 19 16
-13z"/>
<path d="M2201 3670 c-39 -40 -44 -76 -5 -39 28 26 48 58 41 65 -2 3 -19 -9
-36 -26z"/>
<path d="M722 5390 c0 -14 2 -19 5 -12 2 6 2 18 0 25 -3 6 -5 1 -5 -13z"/>
<path d="M1892 5299 c4 -12 99 -52 106 -44 4 4 -92 55 -104 55 -3 0 -4 -5 -2
-11z"/>
<path d="M967 5200 c6 -24 33 -49 33 -31 0 18 -19 51 -29 51 -5 0 -7 -9 -4
-20z"/>
<path d="M735 5167 c-8 -17 -43 -43 -73 -53 -8 -3 81 -136 118 -175 45 -48 46
-48 249 -109 188 -55 282 -72 295 -52 2 4 -10 14 -27 22 -18 7 -76 35 -129 60
-68 33 -98 43 -98 34 0 -8 -11 -19 -24 -25 -37 -17 -66 3 -66 46 0 21 -6 37
-16 43 -9 5 -15 13 -15 18 0 5 -2 17 -5 27 -3 10 1 29 10 41 15 24 14 24 -57
61 -40 21 -90 48 -112 61 l-41 23 -9 -22z"/>
<path d="M1010 5089 c0 -9 7 -22 15 -29 20 -17 19 -54 -2 -71 -16 -13 -17 -12
-4 3 14 19 9 48 -9 48 -5 0 -10 -16 -10 -35 0 -24 5 -35 15 -35 19 0 55 36 55
55 0 21 -59 85 -60 64z"/>
<path d="M3158 5055 c-3 -14 -4 -25 -3 -25 2 0 10 11 19 25 13 20 14 25 2 25
-7 0 -16 -11 -18 -25z"/>
<path d="M1257 5022 c-15 -15 -27 -37 -27 -48 1 -16 5 -14 30 14 17 18 30 39
30 47 0 20 -2 19 -33 -13z"/>
<path d="M971 5021 c-8 -14 -7 -22 4 -31 13 -11 15 -8 15 19 0 36 -5 39 -19
12z"/>
<path d="M3088 4988 c-24 -8 -28 -15 -28 -49 0 -21 2 -39 4 -39 2 0 20 23 40
50 36 50 34 57 -16 38z"/>
<path d="M1256 4939 c-14 -17 -26 -36 -26 -43 0 -11 69 -40 77 -33 6 7 -10
107 -18 107 -4 0 -19 -14 -33 -31z"/>
<path d="M2978 4952 c-27 -9 -48 -19 -48 -24 0 -9 48 -34 53 -27 1 2 15 19 31
37 33 35 32 36 -36 14z"/>
<path d="M1002 4914 c2 -15 8 -29 14 -31 7 -2 10 6 6 22 -6 35 -24 44 -20 9z"/>
<path d="M3022 4917 c-25 -27 -28 -39 -8 -31 11 4 41 54 33 54 -2 0 -13 -10
-25 -23z"/>
<path d="M2830 4810 c0 -12 48 -25 58 -16 8 9 -18 26 -40 26 -10 0 -18 -4 -18
-10z"/>
<path d="M1597 4636 c-4 -15 -6 -31 -2 -34 10 -10 16 6 13 35 l-3 28 -8 -29z"/>
<path d="M2001 4533 c-1 -106 2 -131 12 -127 8 3 25 0 39 -5 26 -10 26 -9 32
37 16 136 18 164 10 159 -16 -10 -74 22 -84 45 -6 16 -9 -18 -9 -109z"/>
<path d="M1640 4629 c0 -19 31 -77 51 -95 18 -17 19 -16 19 28 0 41 -3 46 -35
61 -22 10 -35 13 -35 6z"/>
<path d="M2893 4598 c3 -13 9 -50 12 -83 8 -63 26 -95 56 -95 10 0 20 -4 23
-9 3 -4 33 -16 68 -26 34 -9 74 -26 89 -37 33 -25 52 -19 79 24 22 34 22 35 4
191 l-6 57 -165 0 -165 0 5 -22z"/>
<path d="M2626 4433 c4 -16 14 -39 22 -53 23 -35 28 -4 8 44 -18 43 -39 49
-30 9z"/>
<path d="M1705 4396 c-3 -9 -7 -23 -10 -31 -2 -8 5 -19 15 -25 25 -13 50 -61
50 -94 0 -13 -12 -38 -26 -55 -31 -38 -54 -42 -25 -5 27 34 26 47 -2 80 l-23
27 -13 -59 c-7 -33 -15 -69 -18 -80 -6 -28 19 -37 67 -24 89 24 117 117 60
202 -16 24 -39 53 -50 63 -18 16 -20 16 -25 1z"/>
<path d="M1617 4268 c-36 -33 -41 -70 -15 -103 25 -32 32 -24 43 45 3 25 9 53
11 63 7 24 -10 21 -39 -5z"/>
<path d="M1564 4135 c3 -22 6 -52 6 -67 0 -21 5 -28 20 -28 14 0 21 9 26 36 6
32 3 40 -26 68 l-32 31 6 -40z"/>
<path d="M1666 3954 c-17 -12 -17 -14 -3 -19 8 -4 27 -5 40 -3 l25 3 -22 16
c-19 14 -25 15 -40 3z"/>
<path d="M2560 3806 c0 -58 3 -105 8 -105 23 4 43 -4 78 -32 30 -23 45 -29 67
-25 35 7 82 -34 74 -64 -3 -11 0 -24 7 -29 8 -7 10 4 8 42 l-3 52 31 -52 c18
-29 38 -53 45 -53 16 0 75 -48 75 -61 0 -5 -9 -13 -19 -17 -18 -7 -17 -9 8
-54 24 -42 30 -46 45 -35 16 12 17 24 10 122 -4 61 -9 104 -11 98 -7 -20 -61
-15 -83 7 -18 18 -20 33 -20 143 l0 124 -142 17 c-79 10 -151 20 -160 23 -16
4 -18 -6 -18 -101z"/>
<path d="M2719 3609 c26 -21 37 -19 28 6 -4 8 -17 15 -29 15 l-23 -1 24 -20z"/>
<path d="M2677 3588 c-12 -46 27 -75 83 -63 39 9 29 26 -10 18 -35 -7 -60 10
-59 41 0 15 2 16 6 6 7 -19 24 -30 35 -24 8 5 -33 44 -45 44 -3 0 -7 -10 -10
-22z"/>
<path d="M2890 3500 c0 -5 5 -10 10 -10 6 0 10 5 10 10 0 6 -4 10 -10 10 -5 0
-10 -4 -10 -10z"/>
<path d="M2522 3204 c-51 -43 -59 -75 -11 -47 27 16 66 69 57 78 -2 2 -22 -12
-46 -31z"/>
<path d="M2073 2691 l-82 -78 57 5 c31 2 60 7 64 11 7 7 49 133 46 137 -2 1
-40 -33 -85 -75z"/>
<path d="M1650 2693 l1 -48 19 23 c18 22 18 25 4 48 -9 13 -18 24 -20 24 -2 0
-4 -21 -4 -47z"/>
<path d="M1687 2653 c-13 -14 -13 -17 5 -35 14 -14 18 -30 16 -61 -3 -38 -6
-42 -29 -42 l-26 1 -12 -136 c-6 -74 -14 -155 -16 -180 l-5 -45 80 -42 80 -42
76 106 c69 96 74 106 60 122 -9 10 -19 31 -22 48 -5 24 -17 37 -55 57 -48 27
-48 27 -59 6 -13 -25 -55 -43 -81 -35 -25 8 -24 47 1 70 29 26 61 22 133 -19
l65 -36 61 63 c64 66 64 75 -2 76 -39 1 -64 -14 -83 -50 -8 -17 -18 -29 -20
-26 -11 10 20 62 61 104 43 43 57 73 34 73 -6 0 -8 7 -5 18 4 9 -25 -14 -63
-52 -39 -39 -72 -68 -74 -65 -2 2 -17 22 -32 44 -66 90 -71 95 -88 78z"/>
<path d="M1970 2575 c-24 -14 -24 -14 21 -15 25 0 54 7 65 15 18 13 16 14 -21
14 -22 0 -51 -6 -65 -14z"/>
<path d="M2041 2518 c-99 -108 -95 -101 -66 -145 15 -20 31 -41 37 -44 7 -4
-23 -56 -76 -135 -126 -187 -110 -171 -151 -151 -20 9 -38 17 -40 17 -3 0 -5
-24 -5 -54 0 -47 4 -57 28 -76 35 -28 13 -16 -62 32 -33 21 -61 37 -63 35 -1
-2 13 -41 31 -88 23 -54 39 -83 48 -80 66 21 128 1 128 -41 0 -45 -78 -65
-118 -30 -12 9 -42 70 -68 135 -25 64 -49 117 -54 117 -4 0 -12 -35 -18 -77
-11 -76 -10 -79 14 -104 32 -33 31 -49 -1 -19 -14 13 -27 22 -29 19 -2 -2 -11
-47 -21 -99 -18 -103 -43 -180 -56 -180 -5 0 -26 16 -48 35 -21 19 -43 35 -49
35 -21 0 -24 -21 -6 -41 14 -15 20 -17 31 -7 12 10 14 8 12 -8 -2 -11 10 -38
29 -61 28 -36 32 -48 31 -99 0 -33 -3 -53 -6 -46 -2 6 -15 12 -28 12 -21 0
-24 5 -27 43 l-3 42 -23 -62 c-12 -34 -31 -106 -42 -160 -40 -203 -53 -246
-64 -212 -13 42 -16 70 -6 64 6 -4 10 5 10 23 0 37 -58 150 -84 164 -11 6 -50
11 -86 12 -66 0 -110 -20 -110 -51 0 -7 -4 -13 -10 -13 -17 0 -37 -43 -43 -90
-3 -25 -4 -39 -1 -32 4 9 12 7 31 -8 14 -11 31 -20 39 -20 7 0 14 -4 16 -8 2
-5 46 -39 100 -75 53 -36 94 -67 92 -69 -2 -3 10 -2 27 0 21 3 30 1 25 -6 -6
-10 84 -72 104 -72 6 0 10 -4 10 -9 0 -8 96 -71 109 -71 7 0 21 -10 67 -49 7
-5 15 -7 18 -4 3 4 6 1 6 -5 0 -7 8 -12 19 -12 10 0 24 -7 31 -15 7 -9 32 -25
54 -35 57 -27 97 -55 89 -63 -10 -11 30 -8 210 13 234 28 245 30 250 49 4 13
5 13 6 -2 1 -15 7 -17 29 -13 15 3 65 10 112 15 47 6 112 13 145 17 l60 7 -27
-22 c-15 -12 -24 -28 -22 -38 2 -10 0 -25 -6 -33 -9 -13 -12 -13 -24 2 -12 16
-31 3 -212 -138 -235 -184 -297 -235 -291 -240 2 -3 17 2 33 11 26 13 30 13
41 -1 8 -10 19 -14 30 -10 15 6 15 9 3 16 -25 15 -5 20 23 5 15 -8 27 -9 27
-4 0 6 5 7 10 4 6 -4 8 -10 5 -15 -3 -5 -1 -11 4 -14 5 -4 12 -2 16 4 9 15 28
12 19 -2 -5 -10 -4 -10 6 -1 9 8 20 9 38 2 19 -7 34 -5 63 9 34 17 41 18 59 5
12 -8 24 -12 27 -9 4 3 1 6 -5 6 -7 0 -12 7 -12 15 0 9 9 15 21 15 19 0 21 -4
15 -37 l-7 -38 19 24 c13 16 21 20 26 12 5 -8 12 -7 23 4 18 19 59 16 55 -4
-2 -11 3 -10 23 3 22 15 29 15 43 4 9 -7 13 -8 9 -2 -4 7 2 12 18 12 14 0 25
-4 25 -8 0 -4 15 -7 33 -6 19 1 40 -7 51 -18 13 -13 21 -16 24 -8 6 20 19 13
32 -17 6 -16 18 -32 27 -35 8 -3 12 -10 9 -15 -4 -5 3 -30 14 -56 l20 -46 257
4 c142 3 259 6 260 6 2 1 2 10 0 20 -1 11 3 19 8 18 6 -1 9 -12 7 -23 -2 -21
0 -22 198 -23 197 0 200 0 197 21 -1 11 4 23 12 26 10 3 13 -2 9 -22 l-5 -26
625 0 c350 0 622 4 617 9 -12 10 -393 283 -414 296 -11 6 -13 4 -6 -11 13 -31
15 -146 3 -186 l-11 -38 -59 0 c-32 0 -58 4 -58 9 0 5 16 33 36 62 l36 53 -24
19 c-33 27 -106 63 -155 76 -22 6 -46 18 -53 26 -7 9 -15 49 -18 89 -4 69 -3
73 18 79 12 3 19 10 16 16 -13 21 -140 103 -144 92 -5 -15 -22 -14 -22 2 0 8
-15 14 -40 15 -34 2 -40 0 -40 -17 0 -11 -4 -21 -9 -23 -14 -5 0 -68 15 -68 8
0 14 -10 14 -22 0 -13 3 -41 7 -63 l6 -40 -25 23 c-13 12 -27 19 -31 16 -12
-12 -29 7 -17 20 7 10 3 20 -15 40 -29 31 -31 50 -10 99 l14 35 -93 7 c-80 6
-98 4 -120 -10 -24 -16 -31 -14 -27 8 0 4 -5 7 -11 7 -7 0 -148 7 -312 15
-164 8 -303 12 -307 9 -5 -3 -9 -10 -9 -16 0 -5 -11 -32 -25 -59 -13 -27 -21
-49 -17 -49 4 0 0 -6 -9 -13 -8 -7 -24 -24 -33 -39 -10 -16 -22 -28 -26 -28
-4 0 -13 18 -20 41 -11 32 -11 45 -2 60 7 10 12 27 12 36 0 10 7 27 15 37 21
28 19 36 -9 36 -14 0 -27 4 -30 9 -3 4 6 6 19 3 32 -6 52 11 78 67 11 25 32
61 46 80 14 19 49 80 78 135 29 56 52 93 53 84 0 -9 -4 -20 -10 -23 -5 -3 -10
-20 -10 -37 0 -17 -11 -63 -24 -102 -14 -39 -29 -94 -34 -123 -11 -61 -5 -66
54 -52 22 5 62 14 89 18 74 13 106 21 142 32 18 6 37 8 42 5 5 -4 12 -2 16 4
4 6 11 8 16 5 5 -4 9 -2 9 3 0 5 18 10 40 10 22 1 65 8 95 17 31 8 72 16 93
17 20 1 40 5 43 10 3 5 21 10 40 11 19 1 38 6 42 12 6 6 10 5 14 -3 4 -10 8
-9 18 5 11 15 15 16 31 3 10 -8 15 -10 11 -4 -5 8 70 36 105 39 3 0 10 4 15 9
4 5 4 7 -2 4 -6 -4 -23 5 -40 18 l-30 24 28 27 28 28 30 -33 c18 -21 28 -40
24 -51 -3 -12 1 -17 14 -17 11 0 17 4 15 8 -5 8 7 10 54 11 14 1 19 4 13 10
-6 6 -8 24 -5 41 5 28 4 29 -7 11 -6 -11 -14 -22 -16 -25 -7 -7 -23 24 -23 45
0 24 -16 52 -25 44 -3 -4 -1 -19 5 -35 l10 -29 -20 24 c-11 13 -19 27 -18 31
14 34 128 142 198 188 145 94 168 117 215 217 24 49 44 83 44 74 1 -27 56 -29
84 -5 14 12 47 36 73 55 49 34 48 57 -1 25 -39 -25 -42 -9 -5 33 21 23 28 39
21 41 -17 6 -61 -37 -55 -53 7 -16 -12 -29 -21 -15 -7 11 2 26 45 82 36 46 2
43 -40 -4 -45 -48 -49 -45 -20 12 11 21 16 41 11 45 -11 6 -37 -18 -55 -53
-17 -32 -54 -68 -62 -59 -3 3 -13 20 -22 39 -10 18 -21 31 -27 28 -5 -3 -8 -9
-6 -15 2 -5 8 -39 12 -74 7 -54 6 -69 -8 -90 -25 -39 -30 -43 -128 -100 -49
-29 -117 -72 -150 -95 -33 -23 -81 -54 -107 -69 -26 -15 -83 -54 -127 -87 -43
-33 -87 -60 -98 -60 -10 -1 -29 -7 -43 -15 -28 -16 -120 -20 -120 -5 0 18 23
60 34 60 21 1 57 36 61 61 1 13 8 47 14 75 8 34 9 59 2 76 -5 14 -7 29 -4 32
4 3 2 6 -4 6 -6 0 -16 13 -23 29 -18 45 -82 58 -140 30 -79 -39 -109 -87 -119
-195 -7 -70 -14 -94 -27 -82 -3 4 -7 12 -8 20 -4 21 -47 88 -57 88 -5 0 -9 7
-9 15 0 9 -7 27 -16 40 -9 13 -17 30 -18 37 -2 7 -5 20 -8 28 -3 8 -13 46 -22
83 -8 37 -23 84 -33 104 -9 21 -16 54 -14 78 1 25 -12 90 -33 164 -50 171 -49
180 22 247 31 29 60 54 65 54 12 0 8 30 -4 30 -6 0 -24 -9 -39 -20 -39 -28
-44 -14 -29 75 12 76 7 107 -10 64 -29 -75 -29 -75 -24 -18 8 80 -12 85 -31 7
-16 -62 -16 -62 -12 -15 2 26 0 50 -5 52 -13 9 -29 -31 -29 -74 0 -53 -18 -53
-22 -1 -5 60 -23 48 -26 -17 -6 -96 18 -484 33 -543 8 -30 17 -82 20 -115 3
-33 10 -92 15 -131 5 -39 7 -94 3 -121 -3 -32 -1 -58 7 -73 10 -18 10 -25 1
-28 -14 -5 -51 -75 -51 -97 0 -24 -28 -75 -70 -125 -20 -25 -42 -55 -49 -68
-7 -12 -16 -20 -22 -17 -5 4 -9 -8 -9 -25 0 -23 -11 -41 -46 -75 -25 -25 -47
-45 -49 -45 -4 0 5 142 10 157 2 7 14 13 26 13 21 0 21 0 -2 19 -22 18 -22 19
-6 45 10 14 25 26 35 26 20 1 92 38 77 41 -5 1 -21 0 -34 -1 -26 -2 -25 3 23
62 32 42 29 63 -5 32 -22 -19 -22 -19 -10 3 27 53 5 58 -27 5 -20 -32 -22 -34
-18 -10 3 14 9 33 12 42 13 34 -15 14 -29 -21 l-16 -38 -1 35 c-1 34 -2 34
-11 10 -6 -14 -19 -42 -30 -62 -10 -20 -19 -47 -20 -60 0 -19 -3 -17 -14 12
-20 51 -18 84 6 106 12 10 52 60 88 109 37 50 75 96 84 104 28 22 19 33 -10
14 -21 -13 -25 -14 -17 -3 6 8 14 23 18 34 5 14 2 17 -10 12 -12 -5 -14 -1 -9
17 5 19 3 18 -20 -8 l-26 -30 7 28 c10 42 -12 33 -30 -13 -18 -46 -28 -49 -50
-18 -22 31 -27 19 -11 -27 21 -60 18 -78 -21 -116 l-35 -34 7 54 c8 58 5 59
-43 17 l-24 -20 23 -9 c20 -7 21 -10 8 -20 -9 -7 -14 -20 -12 -29 2 -10 -1
-25 -7 -35 -9 -16 -10 -14 -11 10 0 33 -6 34 -30 5 -15 -20 -20 -21 -35 -8 -9
7 -14 21 -12 31 4 13 -17 30 -85 70 l-89 53 107 28 c59 15 109 29 110 31 2 1
-36 24 -84 49 -87 47 -88 47 -97 25 -6 -12 -23 -28 -38 -35 -17 -8 -26 -19
-23 -27 15 -39 17 -89 5 -134 -11 -43 -10 -53 4 -75 14 -21 15 -29 3 -56 l-13
-32 -22 28 c-32 41 -75 37 -118 -9 -31 -34 -33 -41 -33 -107 0 -45 -4 -69 -10
-65 -5 3 -10 15 -10 26 0 10 -6 19 -13 19 -21 0 -62 51 -91 115 -16 33 -36 72
-47 86 -10 15 -19 37 -19 49 0 12 -16 51 -35 86 -51 95 -53 123 -16 174 35 48
41 72 12 46 -28 -25 -41 -12 -42 42 -1 38 -2 42 -9 22 -5 -17 -8 -19 -9 -7 -1
25 -21 21 -22 -5 -1 -17 -2 -19 -6 -5 -7 27 -23 20 -23 -10 l-1 -28 -14 30
c-14 29 -15 28 -9 -30 3 -33 11 -80 18 -105 7 -25 21 -79 31 -120 10 -41 26
-91 35 -110 31 -62 39 -104 25 -131 -8 -13 -16 -23 -19 -21 -3 1 -17 0 -31 -4
-28 -7 -45 -31 -45 -66 -1 -20 -40 -78 -54 -78 -2 0 -9 15 -16 34 -8 25 -8 51
2 102 6 38 13 92 14 119 2 28 6 68 10 89 5 29 4 37 -4 32 -7 -4 -12 -11 -12
-16 0 -5 -4 -20 -10 -34 l-9 -26 -26 24 c-18 16 -25 34 -25 59 0 28 -9 44 -39
76 -22 23 -44 41 -50 41 -6 0 -11 7 -11 15 0 8 -6 15 -13 15 -7 0 -22 7 -33
15 -18 14 -17 14 15 8 26 -5 33 -3 29 8 -6 16 -20 15 -95 -2 -60 -13 -98 -7
-113 20 -9 18 -7 18 18 9 31 -12 86 -3 77 12 -4 6 -17 7 -31 4 -25 -6 -64 18
-64 39 0 6 9 2 20 -8 26 -24 39 -11 15 15 -21 23 -41 26 -49 8 -3 -7 -4 -3 -3
8 1 12 -7 32 -18 45 l-20 23 30 -21 c22 -15 36 -18 52 -12 31 11 76 -25 70
-57 -6 -32 8 -41 68 -45 l50 -4 12 130 c27 297 59 477 97 554 12 25 28 82 35
127 6 44 22 116 36 159 13 44 23 80 22 81 -1 1 -26 -25 -56 -58z m2469 -1179
c0 -11 -4 -17 -10 -14 -5 3 -10 13 -10 21 0 8 5 14 10 14 6 0 10 -9 10 -21z
m-2806 -170 c-3 -5 -10 -7 -15 -3 -5 3 -7 10 -3 15 3 5 10 7 15 3 5 -3 7 -10
3 -15z m-267 -21 c-3 -8 -6 -5 -6 6 -1 11 2 17 5 13 3 -3 4 -12 1 -19z m97
-90 c-8 -16 -20 -28 -26 -28 -6 0 -20 -7 -30 -17 -17 -15 -18 -15 -18 0 0 9 6
34 14 54 8 21 17 46 20 56 5 16 8 15 30 -10 22 -26 23 -30 10 -55z m421 7 c0
-60 -8 -74 -33 -59 -24 16 -26 40 -7 91 22 57 40 43 40 -32z m915 61 c-23 -8
-41 -24 -52 -45 -22 -44 -28 -49 -28 -22 0 33 52 81 87 80 27 -1 27 -1 -7 -13z
m-1220 -26 c0 -5 -4 -10 -10 -10 -5 0 -10 5 -10 10 0 6 5 10 10 10 6 0 10 -4
10 -10z m604 -52 c10 -40 7 -78 -6 -73 -8 3 -13 24 -13 50 -1 48 9 59 19 23z
m677 -21 c-29 -29 -36 -16 -9 18 14 18 23 24 26 16 2 -7 -5 -22 -17 -34z m563
2 c-3 -5 -10 -7 -15 -3 -5 3 -7 10 -3 15 3 5 10 7 15 3 5 -3 7 -10 3 -15z
m729 -43 c4 -10 1 -13 -9 -9 -15 6 -19 23 -5 23 5 0 11 -7 14 -14z m-1582 -69
c-5 -5 -17 -7 -25 -4 -18 7 -12 35 13 55 14 11 16 10 19 -14 2 -14 -1 -31 -7
-37z m274 29 c11 -11 13 -31 5 -56 -1 -3 -1 -25 0 -50 1 -33 7 -50 23 -63 12
-10 15 -15 7 -11 -11 5 -12 4 -5 -4 6 -6 9 -40 7 -75 -3 -57 -6 -65 -30 -79
-15 -8 -33 -13 -39 -11 -22 8 -15 71 9 95 40 40 20 161 -32 191 l-30 18 22 30
c24 32 42 36 63 15z m-748 -52 c-9 -9 -28 6 -21 18 4 6 10 6 17 -1 6 -6 8 -13
4 -17z m-387 -16 c0 -16 -3 -19 -11 -11 -6 6 -8 16 -5 22 11 17 16 13 16 -11z
m820 -29 c0 -9 -7 -22 -15 -29 -22 -18 -42 29 -25 61 12 22 13 22 26 4 8 -10
14 -26 14 -36z m-670 31 c0 -5 -4 -10 -10 -10 -5 0 -10 5 -10 10 0 6 5 10 10
10 6 0 10 -4 10 -10z m1690 -50 c0 -11 -4 -20 -9 -20 -14 0 -23 18 -16 30 10
17 25 11 25 -10z m-1530 -30 c0 -5 -4 -10 -10 -10 -5 0 -10 5 -10 10 0 6 5 10
10 10 6 0 10 -4 10 -10z m680 -16 c0 -8 -5 -12 -10 -9 -6 4 -8 11 -5 16 9 14
15 11 15 -7z m-42 -113 c4 -42 -4 -62 -22 -55 -22 8 -26 29 -13 63 14 39 31
35 35 -8z m-858 -12 c0 -5 -4 -9 -10 -9 -5 0 -10 7 -10 16 0 8 5 12 10 9 6 -3
10 -10 10 -16z m1137 5 c-3 -3 -12 -4 -19 -1 -8 3 -5 6 6 6 11 1 17 -2 13 -5z
m503 -104 c0 -5 -4 -10 -10 -10 -5 0 -10 5 -10 10 0 6 5 10 10 10 6 0 10 -4
10 -10z m-750 -40 c0 -5 -2 -10 -4 -10 -3 0 -8 5 -11 10 -3 6 -1 10 4 10 6 0
11 -4 11 -10z m615 -155 c0 -43 -29 -40 -33 3 -3 28 0 33 15 30 13 -2 18 -12
18 -33z m119 7 c2 -4 0 -14 -5 -22 -8 -13 -10 -13 -18 0 -10 15 -6 30 9 30 5
0 11 -4 14 -8z m-1131 -35 c3 -8 1 -20 -4 -28 -8 -12 -10 -12 -18 0 -10 15 -4
41 9 41 4 0 10 -6 13 -13z m957 -67 c0 -5 -4 -10 -10 -10 -5 0 -10 5 -10 10 0
6 5 10 10 10 6 0 10 -4 10 -10z m325 -30 c-5 -8 -11 -8 -17 -2 -6 6 -7 16 -3
22 5 8 11 8 17 2 6 -6 7 -16 3 -22z m-142 -24 c3 -8 0 -19 -7 -26 -10 -8 -15
-6 -20 6 -7 17 0 34 14 34 4 0 10 -6 13 -14z m163 -23 c-7 -17 -8 -17 -17 0
-12 21 -2 44 13 29 6 -6 8 -19 4 -29z m-256 -119 c0 -8 -7 -14 -15 -14 -15 0
-21 21 -9 33 10 9 24 -2 24 -19z m1072 11 c0 -5 -5 -11 -11 -13 -6 -2 -11 4
-11 13 0 9 5 15 11 13 6 -2 11 -8 11 -13z m-1177 -44 c3 -5 1 -12 -5 -16 -5
-3 -10 1 -10 9 0 18 6 21 15 7z"/>
<path d="M2828 2564 c-5 -4 -8 -18 -8 -30 0 -29 -25 -54 -53 -53 l-22 0 23 9
c12 5 22 16 22 25 0 20 -10 19 -39 -5 -19 -17 -21 -23 -11 -35 20 -24 67 -19
85 9 16 24 18 96 3 80z"/>
<path d="M2723 2535 c-9 -26 4 -29 33 -6 l27 21 -27 0 c-15 0 -29 -7 -33 -15z"/>
<path d="M215 2260 c-23 -25 -18 -77 10 -114 33 -43 31 -80 -8 -191 l-33 -89
26 -24 25 -23 -33 6 c-29 6 -33 4 -46 -26 -14 -33 -14 -33 36 -81 55 -53 64
-56 72 -30 22 72 46 176 52 222 4 30 16 79 26 108 38 101 28 199 -21 223 -14
7 -32 18 -39 23 -22 16 -51 14 -67 -4z"/>
<path d="M2806 2049 c-43 -63 -81 -120 -83 -127 -4 -8 -27 0 -78 28 -40 22
-76 40 -80 40 -4 0 -5 -28 -1 -62 26 -273 40 -398 46 -408 5 -8 15 -8 35 0 24
9 39 5 119 -36 50 -25 95 -50 101 -55 17 -16 25 -9 25 20 0 43 -37 80 -95 96
l-50 13 38 1 c70 2 124 -36 140 -99 12 -43 23 -53 51 -46 29 7 36 43 11 52 -8
4 -20 26 -26 49 -8 32 -17 45 -33 49 -43 11 -54 87 -17 111 19 11 12 42 -14
59 -31 20 -51 52 -59 91 -16 80 42 64 80 -22 14 -31 27 -53 30 -50 5 5 -29
249 -50 351 l-11 59 -79 -114z"/>
<path d="M1620 2120 c0 -5 7 -10 16 -10 8 0 12 5 9 10 -3 6 -10 10 -16 10 -5
0 -9 -4 -9 -10z"/>
<path d="M1092 1825 c-27 -25 -57 -45 -66 -45 -23 0 -76 -28 -76 -41 0 -5 7
-41 16 -79 l15 -69 52 -5 c153 -15 166 -16 173 -5 8 13 -18 31 -56 40 -23 5
-24 6 -5 14 62 23 165 76 165 84 0 19 -21 22 -45 7 -13 -9 -43 -19 -66 -22
l-42 -7 18 30 c18 30 18 32 -2 66 -13 21 -18 40 -13 48 9 14 4 29 -10 29 -4 0
-30 -20 -58 -45z"/>
<path d="M2860 1810 c11 -21 50 -46 50 -33 0 17 -32 53 -46 53 -12 0 -12 -4
-4 -20z"/>
<path d="M326 1695 c-4 -16 -14 -43 -21 -58 -11 -26 -10 -31 9 -51 l21 -22 17
36 c15 30 15 37 3 46 -7 5 -15 26 -17 45 l-4 34 -8 -30z"/>
<path d="M2940 1695 c0 -8 7 -15 16 -15 14 0 14 3 4 15 -7 8 -14 15 -16 15 -2
0 -4 -7 -4 -15z"/>
<path d="M2956 1614 c3 -21 8 -41 10 -43 5 -6 24 10 24 20 0 6 -4 8 -9 5 -5
-4 -7 2 -4 12 2 10 -3 25 -12 32 -15 13 -16 10 -9 -26z"/>
<path d="M2920 1611 c0 -16 6 -31 13 -34 9 -3 12 5 9 29 -5 41 -22 45 -22 5z"/>
<path d="M1715 1595 c17 -14 32 -20 33 -15 6 17 -19 40 -42 40 -19 -1 -18 -3
9 -25z"/>
<path d="M2974 1528 c10 -52 26 -58 26 -10 0 32 -4 42 -16 42 -13 0 -15 -7
-10 -32z"/>
<path d="M888 1243 c-33 -34 -45 -52 -39 -62 5 -7 14 -10 20 -7 6 4 11 2 11
-5 0 -7 3 -9 6 -6 4 4 15 -3 25 -14 17 -20 17 -19 24 44 11 101 7 105 -47 50z"/>
<path d="M5090 689 c-30 -4 -107 -12 -170 -19 -63 -7 -119 -18 -125 -23 -7 -7
-6 -8 3 -3 19 11 14 -5 -10 -31 -17 -19 -19 -23 -5 -17 20 7 23 -6 5 -25 -11
-10 -10 -11 5 -6 12 5 17 2 17 -9 0 -9 7 -16 15 -16 8 0 15 -8 16 -17 0 -11 3
-13 6 -5 7 17 21 15 27 -5 3 -10 19 -27 35 -38 16 -10 27 -23 24 -29 -4 -5 3
-7 16 -3 21 5 81 -20 81 -35 0 -4 6 -5 13 -3 7 3 20 -7 29 -22 l17 -28 1 51
c0 38 5 55 20 69 11 10 20 24 20 30 0 7 7 26 15 41 8 16 15 42 15 57 0 20 4
26 13 21 10 -6 10 -4 0 7 -7 7 -13 23 -13 35 0 30 -5 32 -70 23z m-235 -99 c0
-7 -6 -15 -12 -17 -8 -3 -13 4 -13 17 0 13 5 20 13 18 6 -3 12 -11 12 -18z
m91 -11 c8 -14 -11 -33 -25 -25 -11 7 -4 36 9 36 5 0 12 -5 16 -11z"/>
<path d="M5935 620 c-35 -37 -49 -38 -41 -5 4 14 2 25 -3 25 -5 0 -12 -13 -16
-30 -7 -32 -35 -46 -63 -31 -21 11 -63 -5 -70 -29 -4 -11 -1 -10 12 3 18 18
46 23 46 8 0 -14 -39 -35 -110 -60 -120 -43 -158 -62 -163 -83 -5 -16 -11 -19
-28 -15 -13 4 -28 2 -34 -3 -5 -4 -34 -18 -64 -29 -48 -19 -55 -20 -65 -6 -10
14 -18 13 -76 -6 -64 -21 -109 -48 -62 -36 15 3 22 1 22 -9 0 -8 6 -11 15 -8
8 4 15 1 15 -5 0 -6 5 -11 11 -11 5 0 7 6 4 13 -4 6 1 3 9 -7 9 -11 16 -16 16
-12 0 5 12 1 26 -9 18 -11 24 -13 19 -4 -6 11 -5 12 6 2 16 -16 33 -17 23 -2
-4 8 -1 8 12 1 15 -7 35 -2 87 22 38 17 66 33 64 36 -2 3 4 14 14 24 17 18 19
18 19 2 0 -27 33 -12 126 55 56 40 87 56 101 53 14 -4 27 3 41 21 l21 27 63
-21 c34 -12 70 -21 80 -21 25 0 22 17 -4 26 -63 19 -55 44 23 69 27 9 52 21
55 27 7 11 -4 10 -76 -8 l-25 -5 28 21 c39 31 33 43 -9 18 l-37 -22 18 27 c23
36 6 34 -30 -3z m-120 -130 c-3 -5 -11 -10 -16 -10 -6 0 -7 5 -4 10 3 6 11 10
16 10 6 0 7 -4 4 -10z"/>
</g>
</svg>
